<?xml version="1.0" standalone="no"?>
<!DOCTYPE svg PUBLIC "-//W3C//DTD SVG 20010904//EN"
 "http://www.w3.org/TR/2001/REC-SVG-20010904/DTD/svg10.dtd">
<svg version="1.0" xmlns="http://www.w3.org/2000/svg"
 width="902.000000pt" height="902.000000pt" viewBox="0 0 902.000000 902.000000"
 preserveAspectRatio="xMidYMid meet">
<metadata>
Created by potrace 1.14, written by Peter Selinger 2001-2017
</metadata>
<g transform="translate(0.000000,902.000000) scale(0.100000,-0.100000)"
fill="#000000" stroke="none">
<path d="M1410 6334 l-264 -265 779 -779 780 -780 -780 -780 -780 -780 268
-267 267 -268 1047 1048 1048 1047 -1045 1045 c-575 575 -1047 1045 -1050
1044 -3 0 -124 -119 -270 -265z"/>
<path d="M5638 6275 c-2 -2 -30 -6 -63 -9 -140 -16 -365 -88 -495 -159 -226
-123 -437 -323 -564 -534 -96 -161 -174 -375 -192 -531 -3 -31 -8 -66 -10 -77
-6 -27 -5 -260 1 -310 76 -621 527 -1128 1122 -1260 145 -32 187 -36 333 -36
129 0 173 4 296 27 116 22 300 91 418 159 76 43 80 44 99 28 11 -10 203 -202
429 -427 l409 -409 50 6 c67 8 132 53 250 174 106 108 149 176 149 238 0 39
-8 47 -428 470 l-428 430 63 125 c100 199 144 387 148 625 1 77 -2 158 -6 180
-4 22 -12 72 -19 110 -16 92 -62 234 -106 332 -166 363 -483 647 -867 777 -66
21 -231 59 -287 65 -29 3 -300 8 -302 6z m312 -500 c68 -13 214 -66 279 -102
241 -132 410 -351 482 -623 33 -128 33 -340 -1 -473 -100 -384 -428 -674 -821
-725 -587 -75 -1112 400 -1093 992 1 55 5 112 8 126 3 14 8 39 12 55 40 205
181 428 354 559 191 145 380 207 615 201 72 -2 146 -6 165 -10z"/>
</g>
</svg>
